<svg width="510" height="147" viewBox="0 0 510 147" fill="none" xmlns="http://www.w3.org/2000/svg">
<circle cx="68" cy="117" r="30" fill="#2F7BD2"/>
<path d="M86.9885 115.166C86.9783 112.993 86.0668 111.295 84.1682 110.173C83.2521 109.631 82.2417 109.43 81.1828 109.43C72.3914 109.43 63.5996 109.431 54.8076 109.434C52.1123 109.434 50.0664 110.896 49.2799 113.311C49.1633 113.67 49.0933 114.042 49 114.408V126.46H56.5979V134H79.3869V126.472H86.9782C86.9848 126.343 86.9913 126.261 86.9913 126.178C86.9969 122.509 87.009 118.837 86.9885 115.166ZM75.5739 130.217H60.4276V120.822H75.5739V130.217ZM82.7828 116.345C82.7452 116.391 82.705 116.435 82.6624 116.477C82.577 116.56 82.4832 116.634 82.3826 116.699C82.3313 116.73 82.279 116.76 82.224 116.792C81.9291 116.935 81.6041 117.006 81.2761 116.998H81.2658C81.1438 116.996 81.0222 116.985 80.902 116.964C80.8072 116.947 80.7137 116.925 80.6221 116.896C80.5021 116.857 80.3864 116.806 80.2769 116.743C79.9891 116.58 79.7567 116.335 79.6099 116.04C79.5269 115.872 79.4687 115.693 79.4373 115.508C79.414 115.375 79.4028 115.24 79.4037 115.105C79.4037 114.39 79.7013 113.831 80.2042 113.515C80.2551 113.483 80.3078 113.453 80.3618 113.427C80.6594 113.286 80.986 113.217 81.3153 113.225C81.5143 113.225 81.7124 113.253 81.904 113.306C82.1955 113.386 82.461 113.54 82.6739 113.754C82.8867 113.968 83.0395 114.234 83.1168 114.525C83.1355 114.594 83.1504 114.665 83.1625 114.738C83.1828 114.861 83.1932 114.985 83.1933 115.109C83.205 115.556 83.0598 115.993 82.7828 116.345Z" fill="#F8F8F8"/>
<path d="M56.6172 107.51V100H79.381V107.51H56.6172Z" fill="#F8F8F8"/>
<circle cx="143" cy="117" r="30" fill="#2F7BD2"/>
<g clip-path="url(#clip0_633_2)">
<path d="M142.995 132.992C145.494 132.992 147.993 132.992 150.491 132.992C151.459 132.992 151.838 132.617 151.838 131.659C151.838 128.136 151.845 124.612 151.831 121.088C151.835 120.561 151.778 120.035 151.661 119.52C151.104 117.213 148.982 115.492 146.595 115.45C144.271 115.409 141.947 115.431 139.623 115.435C139.29 115.441 138.957 115.472 138.628 115.527C136.241 115.889 134.194 118.178 134.175 120.573C134.146 124.264 134.159 127.964 134.157 131.659C134.157 132.617 134.536 132.992 135.503 132.992C138.002 132.993 140.499 132.993 142.995 132.992ZM142.995 101C139.37 101 136.388 103.926 136.396 107.505C136.403 111.141 139.267 114.091 142.995 114.092C146.724 114.093 149.587 111.147 149.595 107.507C149.607 103.928 146.629 101.001 143 101H142.995ZM153.923 132.978C153.959 132.984 153.995 132.988 154.032 132.99C155.59 132.99 157.149 133.018 158.707 132.982C160.654 132.936 161.989 131.535 161.992 129.592C161.992 127.701 161.992 125.81 161.992 123.919C161.991 123.552 161.966 123.185 161.918 122.821C161.628 120.599 159.578 118.549 157.334 118.342C156.12 118.231 154.891 118.287 153.668 118.27C153.651 118.27 153.635 118.297 153.668 118.27C153.786 119.091 153.941 119.87 154.001 120.658C154.06 121.446 154.033 122.253 154.034 123.051C154.034 125.764 154.04 128.478 154.029 131.191C154.029 131.774 153.964 132.358 153.928 132.978H153.923ZM131.403 107.098C130.097 107.103 128.845 107.62 127.92 108.535C126.995 109.451 126.471 110.691 126.461 111.988C126.45 114.671 128.708 116.914 131.416 116.91C134.125 116.907 136.369 114.65 136.354 111.973C136.343 110.678 135.817 109.439 134.891 108.526C133.965 107.613 132.713 107.1 131.408 107.098H131.403ZM149.654 111.753C149.444 114.345 151.566 116.716 154.317 116.888C156.952 117.054 159.336 115.061 159.522 112.204C159.682 109.779 157.621 107.341 155.174 107.129C152.221 106.871 149.895 108.818 149.658 111.753H149.654Z" fill="white"/>
<path d="M124 123.035C124.156 122.523 124.253 121.984 124.479 121.505C125.408 119.544 126.988 118.444 129.162 118.283C130.218 118.206 131.285 118.27 132.37 118.27C132.381 118.338 132.381 118.407 132.37 118.474C132.014 119.474 131.963 120.511 131.964 121.556C131.964 124.711 131.96 127.864 131.969 131.019C131.969 131.665 132.028 132.311 132.062 132.975C132.026 132.984 131.989 132.989 131.952 132.99C130.382 132.99 128.811 133.014 127.242 132.978C125.632 132.94 124.454 131.948 124.072 130.388C124.056 130.318 124.026 130.249 124.003 130.181L124 123.035Z" fill="#EAEAEA"/>
<path d="M142.996 132.991C140.497 132.991 137.999 132.991 135.5 132.991C134.532 132.991 134.153 132.617 134.153 131.659C134.153 127.964 134.143 124.268 134.172 120.573C134.19 118.174 136.238 115.889 138.625 115.527C138.954 115.472 139.286 115.441 139.62 115.435C141.943 115.435 144.267 115.409 146.591 115.45C148.978 115.492 151.1 117.212 151.658 119.52C151.774 120.034 151.832 120.56 151.828 121.088C151.842 124.612 151.836 128.135 151.835 131.659C151.835 132.617 151.455 132.991 150.488 132.991C147.994 132.993 145.497 132.993 142.996 132.991Z" fill="#EAEAEA"/>
<path d="M143 101C146.625 101 149.607 103.928 149.6 107.507C149.591 111.147 146.718 114.093 143 114.092C139.282 114.091 136.41 111.139 136.4 107.505C136.396 103.926 139.37 100.999 143 101Z" fill="#EAEAEA"/>
<path d="M153.928 132.978C153.965 132.358 154.029 131.778 154.031 131.189C154.042 128.476 154.038 125.762 154.036 123.049C154.036 122.251 154.064 121.45 154.003 120.656C153.943 119.863 153.789 119.088 153.671 118.268C153.637 118.297 153.654 118.268 153.671 118.268C154.893 118.285 156.123 118.229 157.337 118.34C159.581 118.547 161.63 120.597 161.92 122.819C161.968 123.183 161.993 123.55 161.995 123.917C162.002 125.808 162.002 127.699 161.995 129.59C161.995 131.533 160.656 132.934 158.71 132.98C157.152 133.016 155.593 132.988 154.034 132.988C153.999 132.987 153.963 132.984 153.928 132.978Z" fill="#EAEAEA"/>
<path d="M131.408 107.098C132.714 107.098 133.966 107.61 134.894 108.523C135.821 109.435 136.347 110.674 136.359 111.97C136.374 114.646 134.117 116.904 131.421 116.907C128.726 116.911 126.455 114.668 126.466 111.985C126.476 110.689 127.001 109.449 127.926 108.534C128.851 107.619 130.102 107.103 131.408 107.098Z" fill="#EAEAEA"/>
<path d="M149.659 111.753C149.896 108.818 152.221 106.871 155.181 107.128C157.628 107.341 159.689 109.779 159.529 112.203C159.344 115.063 156.957 117.052 154.324 116.887C151.571 116.716 149.45 114.345 149.659 111.753Z" fill="#EAEAEA"/>
</g>
<circle cx="218" cy="117" r="30" fill="#2F7BD2"/>
<path d="M236.703 120.137C235.957 117.268 233.188 114.812 230.236 114.447C229.806 114.394 229.667 114.232 229.573 113.853C229.054 111.689 227.889 109.728 226.229 108.224C223.294 105.548 219.817 104.533 215.891 105.197C212.307 105.802 209.592 107.714 207.783 110.834C207.611 111.129 207.426 111.277 207.091 111.332C201.788 112.204 198.236 116.989 199.143 122.124C199.755 125.596 201.788 127.983 205.067 129.347C206.257 129.842 207.519 129.998 208.8 129.999C215.232 129.999 221.665 129.999 228.097 129.999C228.615 129.999 229.134 129.986 229.652 129.959C232.699 129.806 235.46 127.801 236.479 124.957C236.712 124.298 236.829 123.596 236.999 122.915V121.449C236.902 121.014 236.816 120.571 236.703 120.137ZM221.19 119.039V125.277H214.833V119.052H210.191L218 111.354C220.574 113.892 223.173 116.453 225.796 119.039H221.19Z" fill="#EAEAEA"/>
<circle cx="293" cy="117" r="30" fill="#2F7BD2"/>
<g clip-path="url(#clip1_633_2)">
<path d="M298.392 99C298.884 99.5283 299.39 100.044 299.861 100.592C300.133 100.908 300.43 101.01 300.835 101.006C302.747 100.984 304.662 100.995 306.574 100.995H307V104.969H280V100.995H280.394C282.397 100.995 284.401 100.995 286.405 101C286.511 101.008 286.617 100.99 286.716 100.949C286.814 100.908 286.902 100.845 286.974 100.764C287.448 100.248 287.948 99.7502 288.435 99.2426C288.5 99.166 288.559 99.0849 288.613 99H298.392Z" fill="#EAEAEA"/>
<path d="M281.918 107.017H305.1V107.4C305.1 115.201 305.1 123.003 305.1 130.805C305.1 133.282 303.43 135.001 301.039 135.002H285.961C283.574 135.002 281.905 133.279 281.904 130.802C281.9 123.001 281.9 115.199 281.904 107.397C281.903 107.279 281.912 107.164 281.918 107.017Z" fill="#EAEAEA"/>
</g>
<circle cx="368" cy="117" r="30" fill="#2F7BD2"/>
<g clip-path="url(#clip2_633_2)">
<path d="M386.996 117L349.001 134V120.776L375.787 117.045V116.952L348.998 113.224V100L386.996 117Z" fill="#EAEAEA"/>
</g>
<circle cx="443" cy="117" r="30" fill="#2F7BD2"/>
<g clip-path="url(#clip3_633_2)">
<path d="M424 127.911C424.111 127.818 424.229 127.732 424.332 127.628C431.85 120.043 439.368 112.456 446.885 104.867C446.98 104.771 447.071 104.669 447.124 104.612L455.159 112.649C455.136 112.673 455.055 112.763 454.968 112.849L432.341 135.694C432.248 135.788 432.171 135.901 432.087 136.005H424.003L424 127.911Z" fill="#EAEAEA"/>
<path d="M449.856 102.4C451.088 101.148 452.376 99.8342 453.667 98.526C453.767 98.4341 453.878 98.3554 453.998 98.2917C454.353 98.0738 454.768 97.9742 455.183 98.0072C455.599 98.0401 455.993 98.204 456.309 98.4752C456.601 98.7209 456.867 99.0008 457.138 99.2713C458.494 100.625 459.848 101.979 461.201 103.334C462.237 104.371 462.263 105.443 461.288 106.532C460.126 107.829 458.967 109.124 457.841 110.385L449.856 102.4Z" fill="#EAEAEA"/>
</g>
<circle cx="30" cy="30" r="30" fill="#2F7BD2"/>
<g clip-path="url(#clip4_633_2)">
<path d="M26.7583 28.2355C26.758 28.2359 26.7577 28.2363 26.7575 28.2368C26.751 28.2442 26.747 28.2527 26.7409 28.2597C26.5543 28.4934 26.5484 28.8301 26.7254 29.0695C26.7323 29.0788 26.7373 29.0891 26.7444 29.0981C26.7643 29.1205 26.7857 29.1417 26.8083 29.1616C26.8202 29.1731 26.8305 29.1862 26.844 29.197C28.1116 30.2307 29.1072 31.5391 29.7494 33.0151C29.7506 33.018 29.7529 33.0198 29.7541 33.0226C29.7938 33.1098 29.8521 33.1881 29.925 33.2524C29.998 33.3166 30.0841 33.3655 30.1778 33.3958C30.1928 33.4008 30.2074 33.4052 30.2229 33.4091C30.3405 33.4432 30.4659 33.4432 30.5835 33.4091C30.6865 33.3824 30.782 33.3339 30.8631 33.2671C30.9441 33.2003 31.0087 33.1168 31.0521 33.0229C31.0533 33.02 31.0556 33.0181 31.057 33.0151C31.2367 32.6035 31.4439 32.2035 31.6774 31.8177C32.1486 31.0424 32.7243 30.3307 33.3896 29.7013C33.536 29.5629 33.6885 29.4316 33.8412 29.2994C33.9112 29.2387 33.9864 29.1885 34.0464 29.1169C34.2284 28.8999 34.2701 28.5996 34.1296 28.3507C34.1199 28.3335 34.1058 28.3178 34.0948 28.3013C34.081 28.2791 34.066 28.2577 34.0498 28.2372L34.0481 28.2355C33.4384 27.5331 32.7432 26.904 31.9775 26.3617C31.5957 26.0929 31.1983 25.8453 30.7873 25.6201C30.664 25.552 30.5291 25.5127 30.386 25.5158C30.1472 25.5212 29.9494 25.6564 29.7518 25.7707C29.5472 25.889 29.3464 26.0132 29.1494 26.1433C28.3634 26.6624 27.6452 27.271 27.0105 27.9561C26.9258 28.0473 26.8427 28.1397 26.7609 28.2334C26.7602 28.2342 26.7591 28.2342 26.7583 28.2355ZM30.4036 26.9992C31.1734 27.4527 31.8788 28.0008 32.5021 28.6296C31.6783 29.3909 30.9717 30.2619 30.4037 31.2161C29.8358 30.2618 29.129 29.3908 28.305 28.6296C28.9284 28.0008 29.6338 27.4527 30.4036 26.9992Z" fill="#EAEAEA"/>
<path d="M41.5781 16.2186C40.9343 16.2186 40.3128 16.3062 39.7168 16.4555C40.9423 15.7674 42.3616 15.3671 43.8792 15.3671H48.2914C48.3853 15.3682 48.4784 15.3514 48.5655 15.3176C48.6525 15.2838 48.7317 15.2337 48.7985 15.1701C48.8653 15.1066 48.9183 15.0308 48.9545 14.9474C48.9907 14.8639 49.0093 14.7743 49.0093 14.6838C49.0093 14.5933 48.9907 14.5038 48.9545 14.4203C48.9183 14.3368 48.8653 14.2611 48.7985 14.1975C48.7317 14.134 48.6525 14.0838 48.5655 14.05C48.4784 14.0162 48.3853 13.9994 48.2914 14.0006H43.8787C38.5171 14.0006 34.1553 18.2059 34.1553 23.3753C34.1553 27.0903 37.1077 30.1512 40.8694 30.4967V35.5436C40.8694 41.1076 36.1745 45.6341 30.4036 45.6341C24.6328 45.6341 19.9379 41.1076 19.9379 35.5436V30.4954C20.9569 30.3998 21.9446 30.1026 22.839 29.6222C23.7335 29.1418 24.5155 28.4886 25.1361 27.7035C25.141 27.6978 25.1472 27.6938 25.1518 27.6878C25.1883 27.6413 25.2213 27.593 25.2569 27.546C25.2806 27.5145 25.3056 27.4845 25.3282 27.4525C25.3315 27.4478 25.3333 27.4426 25.3365 27.4381C25.7273 26.8677 26.0983 26.2998 26.3969 25.6777C26.9882 24.4462 27.3387 23.1201 27.4308 21.766C27.4769 21.0775 27.4574 20.3864 27.3726 19.7013C27.3184 19.2701 27.2458 18.8433 27.1145 18.427C27.0935 18.3608 27.0706 18.296 27.0472 18.2312C26.9997 18.1002 26.9455 17.9726 26.8871 17.8471C26.5056 17.0183 25.8993 16.3041 25.1321 15.7795C24.8001 15.5538 24.4425 15.365 24.0664 15.2169C23.9895 15.1864 23.9112 15.1596 23.8328 15.1324C23.6942 15.0852 23.5564 15.0425 23.4145 15.0064C23.2656 14.4296 22.7289 14.0005 22.0846 14.0005H21.3122C21.1317 14.0005 20.9529 14.0347 20.7861 14.1013C20.6194 14.168 20.4678 14.2656 20.3402 14.3887C20.2125 14.5117 20.1113 14.6578 20.0422 14.8186C19.9731 14.9794 19.9375 15.1518 19.9375 15.3258V16.0705C19.9378 16.4219 20.0828 16.7588 20.3406 17.0072C20.5984 17.2555 20.9479 17.395 21.3123 17.395H22.0847C22.7127 17.395 23.2363 16.9867 23.4007 16.4326C23.4539 16.4514 23.5076 16.4693 23.5595 16.4899C23.6365 16.5212 23.7139 16.5527 23.7881 16.5886C23.8171 16.6024 23.8443 16.6187 23.8728 16.633C24.3597 16.8805 24.7862 17.2253 25.1239 17.6444C25.1392 17.6636 25.155 17.6824 25.17 17.7017C25.2305 17.7797 25.288 17.8599 25.3423 17.9423C25.378 17.9969 25.4096 18.0535 25.4419 18.1098C25.4968 18.2045 25.5475 18.3016 25.5939 18.4013C25.6363 18.4929 25.6771 18.5869 25.7113 18.683C25.7286 18.7303 25.7451 18.778 25.7605 18.8262C25.8036 18.961 25.8388 19.098 25.866 19.2365C26.3759 21.8387 25.7486 24.559 24.1409 26.7019C23.0443 28.2062 21.2573 29.1258 19.3497 29.1625C17.4365 29.2063 15.6118 28.3471 14.4538 26.8825C12.7363 24.7056 12.0613 21.929 12.5943 19.2263C12.8514 17.9101 13.8204 16.8708 15.0571 16.4294C15.2205 16.9853 15.745 17.395 16.374 17.395H17.1464C17.511 17.395 17.8606 17.2554 18.1184 17.0068C18.3762 16.7583 18.5211 16.4211 18.5211 16.0696V15.3249C18.521 15.1509 18.4854 14.9785 18.4162 14.8178C18.3471 14.657 18.2458 14.5109 18.1181 14.3879C17.9904 14.2648 17.8388 14.1673 17.672 14.1007C17.5052 14.0342 17.3264 13.9999 17.1459 14H16.3735C15.7296 14 15.1933 14.4286 15.0439 15.0048C15.0401 15.0199 14.903 15.0451 14.8382 15.0632C14.7669 15.0831 14.6974 15.1056 14.6276 15.1297C14.4887 15.1774 14.352 15.2309 14.2174 15.2901C13.4111 15.6436 12.7088 16.1853 12.1741 16.8661C11.8123 17.3273 11.5354 17.845 11.3553 18.3966C11.137 19.0671 11.0521 19.7846 11.015 20.4849C10.9791 21.168 11.0077 21.8528 11.1005 22.5308C11.2861 23.8653 11.7261 25.1552 12.3983 26.3353C12.6479 26.7746 12.9342 27.1946 13.2401 27.5993C13.5206 27.9682 13.838 28.3097 14.1877 28.619C15.1772 29.5001 16.396 30.1059 17.7144 30.3719C17.8483 30.399 17.983 30.4224 18.1185 30.4423C18.1522 30.4472 18.5206 30.489 18.5206 30.4905V35.5431C18.5206 41.8606 23.8513 47.0004 30.4039 47.0004C36.9564 47.0004 42.2872 41.8609 42.2872 35.5431V30.4962C46.0483 30.1508 49.0006 27.0899 49.0006 23.3749C49.0004 19.4289 45.6707 16.2186 41.5781 16.2186ZM41.5781 29.1642C38.2668 29.1642 35.5731 26.5669 35.5731 23.3748C35.5731 23.1752 35.5891 22.9794 35.6041 22.7835C35.9123 19.8676 38.4738 17.5851 41.5781 17.5851C44.8891 17.5851 47.5828 20.1822 47.5828 23.3748C47.5828 26.5673 44.8888 29.1642 41.5781 29.1642Z" fill="#EAEAEA"/>
<path d="M15.876 23.4265C15.876 25.212 17.3773 26.6596 19.2293 26.6596C21.0813 26.6596 22.5827 25.212 22.5827 23.4265C22.5827 21.641 21.0813 20.1934 19.2293 20.1934C17.3773 20.1934 15.876 21.6409 15.876 23.4265ZM18.5369 22.2275C18.7828 22.2275 19.0233 22.2978 19.2278 22.4295C19.4323 22.5613 19.5917 22.7485 19.6858 22.9676C19.7799 23.1867 19.8046 23.4278 19.7566 23.6604C19.7086 23.893 19.5901 24.1066 19.4162 24.2743C19.2423 24.442 19.0207 24.5562 18.7795 24.6024C18.5383 24.6487 18.2882 24.6249 18.061 24.5342C17.8337 24.4434 17.6395 24.2898 17.5029 24.0926C17.3662 23.8954 17.2933 23.6636 17.2933 23.4265C17.2933 23.269 17.3254 23.1131 17.3879 22.9676C17.4504 22.8221 17.542 22.69 17.6575 22.5786C17.773 22.4673 17.9101 22.379 18.061 22.3187C18.2118 22.2585 18.3736 22.2275 18.5369 22.2275Z" fill="#EAEAEA"/>
<path d="M41.578 20.1934C39.7259 20.1934 38.2246 21.6409 38.2246 23.4265C38.2246 25.2121 39.7259 26.6596 41.578 26.6596C43.43 26.6596 44.9313 25.212 44.9313 23.4265C44.9313 21.641 43.43 20.1934 41.578 20.1934ZM40.8854 24.6257C40.6394 24.6257 40.399 24.5554 40.1945 24.4236C39.99 24.2919 39.8306 24.1046 39.7365 23.8855C39.6423 23.6664 39.6177 23.4253 39.6657 23.1927C39.7137 22.9602 39.8322 22.7465 40.0061 22.5788C40.18 22.4112 40.4016 22.297 40.6429 22.2507C40.8841 22.2045 41.1341 22.2282 41.3614 22.319C41.5886 22.4098 41.7828 22.5635 41.9195 22.7607C42.0561 22.9578 42.129 23.1897 42.129 23.4268C42.129 23.5843 42.0968 23.7402 42.0343 23.8856C41.9718 24.0311 41.8802 24.1633 41.7647 24.2746C41.6493 24.3859 41.5122 24.4742 41.3613 24.5345C41.2104 24.5947 41.0487 24.6257 40.8854 24.6257Z" fill="#EAEAEA"/>
</g>
<circle cx="405" cy="30" r="30" fill="#2F7BD2"/>
<g clip-path="url(#clip5_633_2)">
<path d="M415.556 49.0003H393.386L393.213 48.9268L393.14 48.8938C391.205 48.3869 390.001 46.8153 390 44.782V37.3669C390 29.9518 390 22.5369 390 15.1224C389.994 14.58 390.095 14.0419 390.297 13.5396C390.499 13.0372 390.798 12.5808 391.176 12.1971C391.555 11.8134 392.005 11.51 392.5 11.3048C392.995 11.0996 393.526 10.9967 394.061 11.0022C400.987 11.0022 408.012 11.0022 414.939 11.0022C415.473 10.997 416.004 11.1001 416.499 11.3053C416.994 11.5106 417.444 11.814 417.822 12.1977C418.2 12.5814 418.499 13.0377 418.701 13.5399C418.903 14.0421 419.004 14.5801 418.998 15.1224C418.998 22.5639 418.998 30.0055 418.998 37.447V44.8904C418.998 46.0653 418.557 47.0848 417.687 47.9196C417.069 48.5141 416.324 48.7836 415.677 48.9682L415.556 49.0003ZM393.763 47.1159H415.295C415.76 46.9774 416.132 46.82 416.411 46.5505C416.909 46.0729 417.141 45.5452 417.141 44.8894V37.446C417.141 30.0045 417.141 22.5633 417.141 15.1224C417.144 14.8282 417.09 14.5363 416.98 14.2638C416.871 13.9913 416.709 13.7437 416.504 13.5354C416.299 13.3272 416.055 13.1624 415.786 13.0508C415.518 12.9393 415.23 12.8831 414.939 12.8856C408.014 12.8856 400.99 12.8856 394.063 12.8856C393.773 12.8828 393.485 12.9388 393.216 13.0503C392.947 13.1618 392.703 13.3265 392.498 13.5349C392.293 13.7432 392.131 13.9909 392.022 14.2635C391.912 14.5361 391.858 14.8281 391.861 15.1224C391.861 22.5344 391.861 29.9489 391.861 37.366V44.7802C391.861 45.973 392.494 46.7889 393.641 47.0772C393.682 47.088 393.723 47.1009 393.763 47.1159Z" fill="#EAEAEA"/>
<path d="M395.159 23.857C395.093 23.6489 395.097 23.4244 395.172 23.2194C395.247 23.0144 395.388 22.8407 395.571 22.7263C395.768 22.606 395.992 22.5386 396.222 22.5304C398.492 22.5162 400.762 22.5181 403.032 22.5238C403.67 22.5238 404.147 22.9949 404.147 23.5781C404.147 24.1613 403.669 24.6324 403.032 24.6371C401.897 24.6447 400.762 24.6371 399.627 24.6371C398.493 24.6371 397.334 24.6428 396.188 24.6371C395.955 24.6446 395.726 24.5715 395.539 24.4298C395.352 24.288 395.218 24.0861 395.159 23.857Z" fill="#EAEAEA"/>
<path d="M395.159 28.0894C395.093 27.8813 395.097 27.6568 395.172 27.4518C395.247 27.2468 395.388 27.0732 395.571 26.9588C395.768 26.8384 395.992 26.771 396.222 26.7628C398.492 26.7486 400.762 26.7505 403.032 26.7562C403.67 26.7562 404.147 27.2273 404.147 27.8105C404.147 28.3937 403.669 28.8648 403.032 28.8695C401.897 28.8771 400.762 28.8695 399.627 28.8695C398.493 28.8695 397.334 28.8752 396.188 28.8695C395.955 28.877 395.726 28.8039 395.539 28.6622C395.352 28.5204 395.218 28.3185 395.159 28.0894Z" fill="#EAEAEA"/>
<path d="M406.283 28.0894C406.177 27.6635 406.302 27.1953 406.632 26.9588C406.793 26.8407 406.984 26.7726 407.183 26.7628C409.104 26.7486 411.026 26.7505 412.945 26.7562C413.485 26.7562 413.891 27.2273 413.892 27.8105C413.893 28.3937 413.487 28.8648 412.949 28.8695C411.989 28.8771 411.028 28.8695 410.068 28.8695C409.107 28.8695 408.126 28.8752 407.156 28.8695C406.719 28.8648 406.402 28.568 406.283 28.0894Z" fill="#EAEAEA"/>
<path d="M395.576 18.4903C395.774 18.3728 395.998 18.308 396.227 18.3018C398.497 18.2877 400.767 18.2896 403.037 18.2952C403.674 18.2952 404.152 18.7663 404.152 19.3552C404.152 19.9441 403.672 20.4048 403.032 20.4086C401.885 20.4161 400.739 20.4086 399.593 20.4086C398.47 20.4086 397.346 20.4086 396.223 20.4086C395.682 20.4086 395.303 20.1156 395.16 19.6228C395.094 19.414 395.1 19.189 395.175 18.9836C395.251 18.7783 395.392 18.6046 395.576 18.4903Z" fill="#EAEAEA"/>
<path d="M412.759 22.5235C412.459 22.5282 412.158 22.5235 411.809 22.5235C411.809 22.8354 411.809 23.1039 411.809 23.3715C411.809 24.1328 411.38 24.6444 410.755 24.6369C410.129 24.6293 409.721 24.1262 409.719 23.3885C409.719 23.1181 409.719 22.8486 409.719 22.5235C409.412 22.5235 409.116 22.5235 408.821 22.5235C408.127 22.5235 407.634 22.0779 407.634 21.4645C407.634 20.8511 408.127 20.4111 408.822 20.4064C409.109 20.4064 409.396 20.4064 409.719 20.4064V19.9278C409.719 18.8216 410.049 18.3006 410.755 18.2921C411.46 18.2836 411.809 18.8169 411.809 19.9475V20.4083C412.141 20.4083 412.449 20.4083 412.759 20.4083C413.404 20.4186 413.881 20.8577 413.895 21.4494C413.909 22.0411 413.416 22.5132 412.759 22.5235Z" fill="#EAEAEA"/>
</g>
<circle cx="330" cy="30" r="30" fill="#2F7BD2"/>
<g clip-path="url(#clip6_633_2)">
<path d="M314.501 39.839C314.541 38.8238 314.884 37.9354 315.608 37.2099C315.92 36.8927 316.123 36.5416 316.031 36.0794C315.898 35.4142 315.442 35.0747 314.682 35.0652C313.871 35.0622 313.084 34.792 312.443 34.2964C311.801 33.8009 311.34 33.1077 311.132 32.3241C311.054 32.0317 311.013 31.7308 311.01 31.4283C310.994 30.4924 310.999 29.5554 311.004 28.6194C311.006 27.6462 311.392 26.7129 312.078 26.0231C312.765 25.3333 313.696 24.9429 314.669 24.937C315.247 24.937 315.706 24.7498 315.946 24.1967C316.186 23.6436 315.993 23.1847 315.597 22.7648C314.125 21.2049 314.148 19.0073 315.65 17.4771C316.259 16.8563 316.874 16.2397 317.499 15.6337C319.034 14.1426 321.237 14.1341 322.786 15.6168C323.197 16.0092 323.651 16.1742 324.187 15.9489C324.723 15.7236 324.928 15.2742 324.936 14.7116C324.972 12.5965 326.578 11.0101 328.698 11.0101C329.622 11.0101 330.545 11.0027 331.468 11.0101C333.394 11.0292 335.036 12.6726 335.063 14.6058C335.063 14.646 335.063 14.6851 335.063 14.7243C335.063 15.289 335.275 15.7342 335.803 15.9648C336.332 16.1953 336.796 16.0229 337.205 15.6348C338.428 14.4778 340.082 14.1183 341.457 14.922C342.956 15.7973 344.204 17.044 345.081 18.542C345.887 19.9168 345.542 21.5592 344.411 22.7669C344.1 23.099 343.865 23.448 343.962 23.9303C344.098 24.5965 344.553 24.9349 345.313 24.9455C346.116 24.9462 346.898 25.2111 347.536 25.6993C348.174 26.1876 348.634 26.8721 348.846 27.6475C348.93 27.9516 348.976 28.2649 348.983 28.5803C349.001 29.5162 348.994 30.4532 348.989 31.3892C348.988 32.3626 348.602 33.296 347.915 33.986C347.228 34.6759 346.297 35.0665 345.323 35.0726C344.746 35.0726 344.289 35.2588 344.048 35.8129C343.807 36.3671 343.998 36.8239 344.395 37.2427C345.866 38.7963 345.844 41.0023 344.345 42.5305C343.736 43.1523 343.121 43.7699 342.497 44.3759C340.975 45.8565 338.783 45.8734 337.238 44.415C336.815 44.0185 336.363 43.8218 335.806 44.0587C335.25 44.2955 335.066 44.7566 335.057 45.3341C335.051 46.3075 334.661 47.2392 333.971 47.9262C333.281 48.6132 332.348 48.9997 331.375 49.0017C330.478 49.0017 329.577 49.0017 328.684 49.0017C326.58 49.0017 324.983 47.4322 324.927 45.3288C324.906 44.5557 324.609 44.1454 323.959 43.9804C323.465 43.8545 323.098 44.0766 322.756 44.4034C321.47 45.6238 319.683 45.8343 318.209 44.9385C317.982 44.8033 317.772 44.6426 317.583 44.4595C316.885 43.7773 316.191 43.091 315.512 42.3888C314.833 41.6866 314.538 40.8056 314.501 39.839ZM339.904 42.9165L339.956 43.0117C340.247 42.8499 340.58 42.7325 340.821 42.5167C341.406 41.9943 341.947 41.4275 342.505 40.8765C343.23 40.1605 343.246 39.6021 342.544 38.8608C341.936 38.2412 341.569 37.4255 341.507 36.5595C341.354 34.3588 343.046 32.5683 345.288 32.5345C346.134 32.5208 346.626 32.0353 346.63 31.1978C346.635 30.3926 346.635 29.5878 346.63 28.7834C346.625 27.9701 346.129 27.4826 345.311 27.4646C345.098 27.4664 344.886 27.4509 344.676 27.4181C343.184 27.1336 342.151 26.2844 341.687 24.863C341.223 23.4417 341.575 22.161 342.614 21.0696C343.217 20.435 343.207 19.8185 342.581 19.1956C342.045 18.6605 341.504 18.1317 340.965 17.5997C340.24 16.8848 339.68 16.8732 338.922 17.5638C338.247 18.2051 337.358 18.5717 336.427 18.5917C334.244 18.6393 332.542 17.0054 332.507 14.8554C332.494 14.021 332.002 13.5377 331.151 13.5334C330.322 13.5334 329.491 13.5271 328.662 13.5334C327.888 13.5419 327.394 14.0368 327.364 14.7951C327.359 15.1371 327.317 15.4775 327.239 15.8104C326.486 18.56 323.1 19.5065 320.966 17.5733C320.187 16.8668 319.645 16.8774 318.895 17.6156C318.385 18.119 317.874 18.6227 317.364 19.1268C316.639 19.8439 316.624 20.3959 317.331 21.1425C317.969 21.7908 318.339 22.6553 318.369 23.5643C318.436 25.7355 316.777 27.4297 314.575 27.4646C313.748 27.4773 313.247 27.9616 313.242 28.7686C313.236 29.5987 313.233 30.43 313.242 31.2612C313.25 32.0216 313.756 32.5017 314.528 32.5377C314.887 32.5437 315.244 32.5891 315.594 32.673C318.378 33.4482 319.295 36.7615 317.313 38.8766C316.635 39.6 316.647 40.1647 317.353 40.8627C317.873 41.3767 318.394 41.8896 318.915 42.4015C319.643 43.1143 320.195 43.1143 320.961 42.4332C322.167 41.3619 323.553 41.0774 325.046 41.7014C326.539 42.3253 327.324 43.514 327.366 45.1352C327.388 45.9728 327.869 46.4593 328.716 46.4646C329.519 46.4688 330.322 46.4688 331.125 46.4646C332.021 46.4646 332.467 45.9834 332.519 45.0898C332.539 44.6189 332.636 44.1546 332.805 43.715C333.809 41.2921 336.929 40.6396 338.901 42.4226C339.189 42.6838 339.472 42.9387 339.904 42.9207V42.9165Z" fill="#EAEAEA"/>
<path d="M321.136 29.995C321.134 28.8294 321.362 27.6748 321.808 26.5977C322.253 25.5206 322.907 24.5423 323.732 23.7189C324.557 22.8955 325.537 22.2433 326.615 21.7998C327.693 21.3564 328.847 21.1304 330.013 21.1348C334.934 21.1348 338.867 25.1038 338.864 30.0638C338.864 34.8936 334.878 38.8689 330.046 38.8647C325.082 38.8605 321.136 34.9317 321.136 29.995ZM336.331 29.9844C336.304 26.485 333.432 23.6391 329.965 23.6708C328.285 23.6876 326.68 24.3684 325.501 25.5645C324.321 26.7607 323.662 28.3751 323.668 30.0553C323.689 33.5198 326.601 36.3731 330.073 36.3329C333.516 36.2917 336.36 33.4035 336.331 29.9844Z" fill="#EAEAEA"/>
</g>
<circle cx="105" cy="30" r="30" fill="#2F7BD2"/>
<g clip-path="url(#clip7_633_2)">
<path d="M124 48.1792C123.974 48.2019 123.95 48.2282 123.931 48.2575C123.666 48.7819 123.284 49.0396 122.801 48.9871C122.26 48.9286 121.946 48.6035 121.78 48.095C121.263 46.5238 120.736 44.9546 120.213 43.3855C119.944 42.5776 119.665 41.7727 119.405 40.9609C118.792 39.0527 117.513 37.881 115.552 37.4548C115.206 37.3794 114.857 37.3071 114.461 37.2228C114.461 38.0535 114.454 38.8396 114.473 39.6266C114.473 39.695 114.632 39.7882 114.734 39.8249C116.48 40.4315 117.565 41.6319 117.946 43.437C118.039 43.8791 118.033 44.346 118.04 44.802C118.053 45.7665 118.046 46.731 118.04 47.6955C118.04 48.5618 117.602 48.9921 116.736 48.995C116.438 48.995 116.141 48.995 115.843 48.995C115.16 48.9891 114.684 48.5985 114.628 47.9978C114.569 47.3624 114.959 46.8936 115.649 46.7706C115.694 46.7627 115.74 46.7498 115.79 46.7389C115.79 45.8379 115.85 44.9447 115.775 44.0625C115.664 42.7412 114.585 41.8272 113.295 41.851C112.675 41.8542 112.08 42.0955 111.632 42.525C111.185 42.9545 110.92 43.5394 110.892 44.1587C110.84 45.0072 110.882 45.8616 110.882 46.7359C111.019 46.7687 111.149 46.7915 111.279 46.8301C111.526 46.9041 111.74 47.0624 111.883 47.2774C112.026 47.4925 112.089 47.7508 112.061 48.0074C112.034 48.2641 111.917 48.503 111.731 48.6827C111.546 48.8624 111.303 48.9715 111.046 48.9911C110.588 49.0163 110.13 49.0163 109.673 48.9911C109.159 48.9613 108.689 48.5728 108.681 48.0504C108.666 46.4832 108.582 44.8972 108.78 43.3518C109.009 41.5675 110.249 40.4722 111.905 39.8655C112.166 39.7664 112.241 39.6534 112.236 39.3937C112.221 38.6271 112.221 37.8605 112.236 37.0939C112.236 36.8362 112.188 36.6974 111.898 36.6429C111.073 36.4823 110.254 36.291 109.438 36.0948C109.192 36.0363 109.066 36.1027 108.942 36.3198C107.991 37.9256 107.027 39.5235 106.066 41.1214C105.47 42.1038 104.53 42.1127 103.941 41.1323C102.978 39.5344 102.013 37.9375 101.065 36.3317C100.927 36.0977 100.79 36.0432 100.535 36.1047C99.7058 36.3029 98.8746 36.4952 98.0394 36.6647C97.8173 36.7103 97.7627 36.8045 97.7637 37.0097C97.7697 38.6423 97.7736 40.2749 97.7637 41.9065C97.7637 42.1662 97.8986 42.2346 98.088 42.3209C98.8196 42.6469 99.4173 43.2136 99.7815 43.9266C100.146 44.6396 100.254 45.4558 100.089 46.2392C99.9246 47.0225 99.4961 47.7258 98.8753 48.2317C98.2546 48.7376 97.4791 49.0157 96.6781 49.0196C95.8771 49.0234 95.099 48.7528 94.4734 48.2529C93.8478 47.753 93.4126 47.0539 93.2402 46.2721C93.0677 45.4904 93.1686 44.6732 93.5259 43.9567C93.8832 43.2403 94.4753 42.6678 95.2037 42.3347C95.4795 42.2118 95.5519 42.0671 95.5499 41.7836C95.535 40.4117 95.543 39.0388 95.543 37.6659V37.2694C93.2994 37.5321 91.4178 38.4153 90.5837 40.9718C89.807 43.3676 88.9967 45.7516 88.1963 48.1406C88.0048 48.7125 87.5694 49.0258 87.0398 48.998C86.8026 48.9881 86.5755 48.8999 86.394 48.747C86.2125 48.5941 86.0869 48.3854 86.037 48.1534C85.9931 47.9367 86.0044 47.7124 86.0697 47.5012C86.9118 44.9457 87.7172 42.3754 88.6357 39.8467C89.5452 37.3388 91.4059 35.8549 94.0026 35.2799C95.9932 34.8388 97.9819 34.3878 99.9755 33.9635C100.258 33.9021 100.326 33.7871 100.32 33.5204C100.303 32.8038 100.308 32.0861 100.32 31.3694C100.329 31.2799 100.313 31.1895 100.271 31.1095C100.23 31.0295 100.166 30.9634 100.088 30.9194C97.0611 28.9719 95.5453 26.1963 95.54 22.5928C95.54 21.096 95.535 19.6002 95.5509 18.1044C95.5638 16.9148 95.9833 15.8552 96.7332 14.9323C98.5602 12.6891 100.907 11.3836 103.794 11.0664C103.877 11.0508 103.959 11.0289 104.038 11.001H105.968C106.035 11.0281 106.104 11.049 106.175 11.0634C109.063 11.3608 111.412 12.6623 113.248 14.8966C114 15.8126 114.438 16.8623 114.45 18.0548C114.464 19.884 114.458 21.7129 114.43 23.5414C114.413 23.9859 114.351 24.4274 114.242 24.8588C113.647 27.4678 112.201 29.483 109.932 30.9055C109.851 30.9461 109.785 31.0099 109.741 31.0887C109.697 31.1676 109.678 31.2578 109.686 31.3476C109.7 32.0762 109.702 32.8057 109.686 33.5343C109.68 33.793 109.753 33.8902 110.017 33.9467C112.117 34.4007 114.221 34.8438 116.308 35.3503C118.75 35.9451 120.465 37.432 121.349 39.7832C121.974 41.4456 122.488 43.1535 123.058 44.8317C123.369 45.7516 123.695 46.6666 124.014 47.5835L124 48.1792ZM104.981 30.1085C105.459 30.0481 105.941 30.0094 106.413 29.9251C109.727 29.3135 112.265 26.2297 112.218 22.8713C112.218 22.7722 112.159 22.5987 112.089 22.574C111.128 22.2627 110.456 21.5678 109.796 20.862C109.592 20.643 109.424 20.6301 109.155 20.7302C106.43 21.7413 103.688 21.7532 100.956 20.7728C100.56 20.6321 100.342 20.6737 100.072 20.9711C99.4647 21.6441 98.8081 22.2597 97.9174 22.564C97.8341 22.5928 97.7627 22.794 97.7637 22.914C97.7925 26.8671 101.023 30.0659 104.981 30.1085ZM112.105 20.0849L112.221 20.0224C112.221 19.4079 112.227 18.7933 112.221 18.1787C112.21 17.4927 111.961 16.8319 111.516 16.3092C110.037 14.4872 108.127 13.4514 105.792 13.265C102.922 13.037 100.511 13.9688 98.581 16.1526C97.5445 17.3252 97.7806 18.6832 97.8113 20.0452C98.3281 19.5863 98.8032 19.1055 99.2803 18.6287C99.8208 18.0905 100.184 18.034 100.88 18.3452C103.618 19.5823 106.355 19.5823 109.094 18.3452C109.802 18.0251 110.144 18.0736 110.694 18.6218C111.173 19.1026 111.635 19.5972 112.105 20.0849ZM102.531 31.98C102.531 32.7314 102.519 33.4451 102.539 34.1608C102.545 34.3661 102.601 34.5668 102.702 34.7456C103.39 35.9163 104.091 37.0771 104.792 38.2398C104.847 38.331 104.911 38.4163 105.008 38.559C105.041 38.4906 105.054 38.4599 105.073 38.4262C105.836 37.1574 106.598 35.8886 107.36 34.6198C107.403 34.5614 107.431 34.4933 107.442 34.4215C107.442 33.6235 107.442 32.8246 107.442 31.987C105.831 32.4085 104.138 32.4044 102.53 31.9751L102.531 31.98ZM96.635 46.7677C96.9716 46.7661 97.2942 46.6325 97.5331 46.3955C97.7721 46.1585 97.9083 45.8372 97.9125 45.5008C97.9137 45.249 97.8401 45.0025 97.701 44.7925C97.562 44.5825 97.3637 44.4185 97.1313 44.3211C96.899 44.2237 96.6429 44.1974 96.3956 44.2456C96.1483 44.2937 95.9208 44.414 95.742 44.5914C95.5631 44.7688 95.4409 44.9952 95.3908 45.242C95.3407 45.4888 95.365 45.7448 95.4606 45.9778C95.5562 46.2108 95.7189 46.4102 95.9279 46.5508C96.1369 46.6914 96.383 46.7669 96.635 46.7677Z" fill="#EAEAEA"/>
</g>
<circle cx="255" cy="30" r="30" fill="#2F7BD2"/>
<g clip-path="url(#clip8_633_2)">
<path d="M236.374 46.9995C236.061 46.7498 235.987 46.4281 236.002 46.0384C236.133 42.5162 237.836 39.9662 240.937 38.3014C242.926 37.2338 245.092 36.718 247.325 36.4589C247.704 36.4151 248.089 36.4143 248.469 36.3806C248.809 36.3477 249.055 36.4863 249.288 36.7172C251.086 38.4986 252.887 40.2766 254.691 42.0513C254.786 42.1452 254.885 42.2344 254.999 42.3417C255.109 42.2399 255.208 42.153 255.302 42.0607C257 40.3873 258.722 38.7373 260.379 37.0248C260.915 36.4706 261.474 36.307 262.189 36.3924C264.217 36.635 266.208 37.0232 268.09 37.8419C269.935 38.645 271.521 39.7681 272.632 41.4674C273.346 42.5632 273.752 43.7638 273.922 45.049C273.941 45.1409 273.968 45.2311 274.001 45.3191V47.0026H273.11C272.987 46.8054 272.811 46.6215 272.753 46.407C272.674 46.1292 272.698 45.8262 272.674 45.5343C272.544 43.9196 271.978 42.4818 270.883 41.26C269.586 39.8167 267.906 38.9948 266.075 38.4422C265.349 38.2231 264.604 38.0681 263.758 37.856C264 38.3428 264.189 38.717 264.374 39.0974C264.615 39.5983 264.519 39.8871 264.016 40.1407C263.434 40.4342 262.851 40.7285 262.26 41.0017C262.034 41.105 261.96 41.2365 261.97 41.4776C261.99 41.9887 261.976 42.5021 261.976 43.0148C261.976 43.6159 261.869 43.7576 261.293 43.929C259.582 44.437 257.875 44.959 256.157 45.4435C255.772 45.5515 255.59 45.6948 255.65 46.1041C255.683 46.2792 255.66 46.4602 255.584 46.6218C255.508 46.7834 255.383 46.9176 255.226 47.0058H254.78C254.623 46.9176 254.498 46.7834 254.422 46.6218C254.346 46.4602 254.323 46.2792 254.357 46.1041C254.416 45.694 254.233 45.5515 253.849 45.4435C252.131 44.959 250.424 44.437 248.712 43.9282C248.138 43.7576 248.03 43.6151 248.03 43.0124C248.03 42.488 248.02 41.9628 248.034 41.4384C248.041 41.2279 247.977 41.1089 247.778 41.0166C247.186 40.7418 246.603 40.4491 246.02 40.1556C245.478 39.8848 245.386 39.6014 245.65 39.0598C245.829 38.6927 246.011 38.328 246.21 37.9257C246.143 37.921 246.075 37.921 246.008 37.9257C244.708 38.1722 243.437 38.5135 242.232 39.0622C240.617 39.7971 239.239 40.8099 238.316 42.3495C237.618 43.5118 237.334 44.7837 237.292 46.1166C237.281 46.4759 237.195 46.7796 236.896 47.0011L236.374 46.9995ZM246.998 39.2148C247.623 39.5279 248.224 39.83 248.834 40.1196C249.162 40.2761 249.31 40.5109 249.304 40.871C249.292 41.3946 249.316 41.9198 249.295 42.4426C249.285 42.6962 249.368 42.805 249.612 42.8763C251.09 43.3013 252.562 43.7427 254.037 44.1771C254.127 44.1985 254.218 44.2152 254.31 44.2272C254.41 43.7803 254.326 43.4531 253.986 43.1314C252.672 41.8791 251.391 40.5884 250.099 39.3126C249.584 38.8039 249.068 38.2951 248.552 37.7879C248.295 37.5374 247.848 37.5594 247.7 37.8349C247.461 38.2818 247.238 38.7389 246.998 39.2148ZM263.004 39.2187C262.796 38.8062 262.601 38.4156 262.403 38.0266C262.15 37.5281 261.769 37.4701 261.366 37.8701C259.558 39.6531 257.758 41.4439 255.935 43.2128C255.609 43.5259 255.625 43.8492 255.692 44.2303C255.749 44.229 255.806 44.223 255.863 44.2123C257.395 43.7576 258.925 43.2973 260.46 42.8512C260.658 42.7941 260.707 42.7001 260.704 42.5162C260.696 41.9801 260.714 41.4439 260.697 40.9078C260.685 40.5164 260.851 40.273 261.207 40.1078C261.804 39.8268 262.395 39.5216 263.004 39.2187Z" fill="#EAEAEA"/>
<path d="M258.802 36.9568C258.802 37.4523 258.802 37.9501 258.802 38.4439C258.802 38.5903 258.806 38.7375 258.796 38.883C258.77 39.2603 258.509 39.5178 258.161 39.5155C257.814 39.5131 257.542 39.2517 257.532 38.8744C257.516 38.3375 257.527 37.8006 257.526 37.2636C257.526 37.1908 257.519 37.118 257.513 36.9842C255.843 37.8201 254.182 37.8342 252.475 36.9717C252.475 37.6159 252.501 38.1966 252.461 38.7719C252.446 38.9887 252.332 39.2603 252.168 39.3918C251.796 39.69 251.251 39.4239 251.22 38.9441C251.187 38.4455 251.205 37.9438 251.201 37.4436C251.201 37.2871 251.201 37.1306 251.201 37.0139C250.161 36.7557 249.15 36.5443 248.164 36.2508C246.414 35.7179 244.769 34.8959 243.298 33.8198C242.59 33.3102 242.451 32.5306 242.391 31.7432C242.25 29.9117 242.55 28.1154 242.956 26.3426C243.512 23.9609 244.146 21.5987 244.736 19.2248C244.779 19.0298 244.765 18.8267 244.695 18.6393C244.374 17.7971 244.023 16.9659 243.69 16.1276C243.516 15.6893 243.596 15.395 243.971 15.1884C245.946 14.0973 247.971 13.1119 250.184 12.5859C254.706 11.5105 259.103 11.8815 263.333 13.8382C264.206 14.2405 265.054 14.6859 265.909 15.1242C266.415 15.3833 266.5 15.6368 266.288 16.173C265.959 16.9995 265.614 17.8167 265.297 18.651C265.231 18.8262 265.217 19.016 265.255 19.1989C265.919 21.9384 266.636 24.6778 267.256 27.4267C267.573 28.8402 267.732 30.289 267.615 31.7495C267.536 32.7302 267.206 33.5247 266.309 34.1078C264.065 35.566 261.641 36.5201 258.986 36.9091C258.941 36.9239 258.895 36.9388 258.802 36.9568ZM262.013 27.9245H261.97C261.97 27.3883 261.979 26.8514 261.962 26.3152C261.962 26.2041 261.89 26.0428 261.804 25.9951C260.416 25.2468 259.304 24.1745 258.245 23.0435C258.087 22.876 257.976 22.8651 257.778 22.9653C254.81 24.4888 251.624 25.5571 248.33 26.1336C248.087 26.1767 248.032 26.2628 248.034 26.4835C248.043 27.4588 248.024 28.4348 248.042 29.41C248.044 30.2289 248.242 31.0358 248.619 31.7652C249.717 33.8346 251.43 35.22 253.593 36.0951C254.619 36.5091 255.636 36.4316 256.647 36.0082C257.616 35.605 258.512 35.0499 259.301 34.3645C260.549 33.2805 261.566 32.0282 261.856 30.3649C261.993 29.565 261.962 28.7385 262.013 27.9245ZM262.935 21.05L264.953 16.0783C261.352 13.9932 257.521 12.9905 253.357 13.3388C250.361 13.5893 247.645 14.6279 245.045 16.0658C245.736 17.7637 246.412 19.4249 247.071 21.0492C252.388 19.015 257.646 19.0189 262.935 21.05ZM249.841 35.4133L249.881 35.3351L249.564 35.047C248.206 33.7947 247.188 32.3405 246.871 30.4941C246.822 30.2107 246.712 30.1403 246.455 30.1145C245.84 30.0563 245.269 29.7777 244.849 29.3314C244.429 28.8852 244.19 28.3024 244.176 27.6936C244.147 26.4647 245.079 25.4089 246.329 25.1889C247.529 24.9768 248.729 24.7498 249.914 24.4681C252.595 23.8294 255.196 22.9645 257.608 21.6128C258.198 21.2825 258.37 21.3365 258.856 21.8171C259.702 22.6522 260.552 23.4873 261.452 24.2653C262.025 24.7616 262.687 25.1506 263.507 25.1686C263.766 25.185 264.02 25.2504 264.254 25.3611C264.767 25.5842 265.191 25.9681 265.46 26.4532C265.729 26.9384 265.829 27.4976 265.743 28.0442C265.57 29.14 264.671 29.9806 263.512 30.1145C263.291 30.1403 263.154 30.1927 263.14 30.4565C263.114 30.6987 263.06 30.9374 262.981 31.168C262.604 32.4751 261.881 33.581 260.938 34.5563C260.677 34.8271 260.416 35.0995 260.134 35.393C260.242 35.375 260.335 35.3656 260.424 35.3437C262.36 34.8808 264.185 34.0471 265.795 32.8899C266.019 32.7287 266.232 32.4203 266.263 32.1573C266.342 31.4842 266.41 30.786 266.32 30.1223C266.109 28.5444 265.844 26.9696 265.522 25.4096C265.212 23.9162 264.797 22.4432 264.402 20.8528C264.21 21.3185 264.061 21.6762 263.914 22.0346C263.642 22.6968 263.318 22.7962 262.681 22.4354C262.382 22.2658 262.071 22.1157 261.752 21.9861C259.855 21.2222 257.858 20.9271 255.83 20.8121C254.36 20.7404 252.886 20.8408 251.439 21.1111C249.955 21.3764 248.498 21.7294 247.181 22.505C246.705 22.7852 246.336 22.6467 246.116 22.1317C245.949 21.7403 245.799 21.349 245.613 20.8872C245.58 21.0038 245.566 21.0437 245.556 21.0876C245.019 23.3731 244.433 25.6491 243.969 27.9487C243.742 29.075 243.716 30.2452 243.64 31.3973C243.589 32.1589 243.837 32.7568 244.575 33.192C245.864 33.9512 247.18 34.6275 248.611 35.0799C249.017 35.2051 249.429 35.3022 249.841 35.4133ZM246.741 28.8527V26.4334C246.019 26.4663 245.501 26.9876 245.507 27.6521C245.508 27.8109 245.541 27.9679 245.603 28.1142C245.666 28.2605 245.757 28.3932 245.872 28.5046C245.986 28.6161 246.122 28.7043 246.271 28.764C246.42 28.8237 246.58 28.8539 246.741 28.8527ZM263.255 28.8402C263.911 28.884 264.48 28.3416 264.498 27.6662C264.502 27.5041 264.472 27.3431 264.411 27.1926C264.35 27.0422 264.259 26.9056 264.142 26.7911C264.026 26.6765 263.888 26.5864 263.735 26.5261C263.583 26.4658 263.42 26.4367 263.255 26.4405V28.8402Z" fill="#EAEAEA"/>
<path d="M255.677 17.0418C256.194 17.0011 256.881 17.1459 256.885 16.4054C256.89 15.6407 256.191 15.7855 255.674 15.7487C255.617 15.2329 255.775 14.5371 254.998 14.541C254.22 14.5449 254.391 15.2455 254.33 15.748C253.812 15.7808 253.133 15.647 253.118 16.3796C253.104 17.1498 253.811 16.9995 254.332 17.0433C254.393 17.563 254.219 18.2745 255.046 18.2424C255.781 18.215 255.616 17.556 255.677 17.0418Z" fill="#EAEAEA"/>
<path d="M255.677 17.0418C255.612 17.556 255.781 18.2158 255.042 18.2424C254.217 18.2745 254.392 17.563 254.328 17.0433C253.807 16.9995 253.1 17.1498 253.114 16.3796C253.129 15.647 253.809 15.7808 254.326 15.748C254.387 15.2447 254.222 14.5442 254.994 14.541C255.765 14.5379 255.613 15.2329 255.67 15.7487C256.187 15.7855 256.886 15.6407 256.882 16.4054C256.881 17.1459 256.194 17.0011 255.677 17.0418Z" fill="#EAEAEA"/>
</g>
<circle cx="480" cy="30" r="30" fill="#2F7BD2"/>
<g clip-path="url(#clip9_633_2)">
<path d="M488.337 11.001V14.4572H467.5V38.6238H464.003V38.2505C464.003 30.3844 464.003 22.5178 464.003 14.6506C464.003 13.1338 464.656 12.0165 466.018 11.3327C466.322 11.18 466.669 11.1096 466.995 11.001H488.337Z" fill="#EAEAEA"/>
<path d="M496.998 33.4429C496.998 37.4132 496.998 41.3833 496.998 45.3531C496.998 46.8521 496.37 47.983 495.009 48.6405C494.551 48.8576 494.05 48.9734 493.543 48.9799C487.162 49.0019 480.783 49.0053 474.404 48.99C472.431 48.99 470.949 47.4392 470.948 45.4269C470.948 37.9573 470.948 30.4875 470.948 23.0173C470.948 22.4981 470.948 21.9789 470.948 21.4597C470.958 19.4236 472.458 17.9085 474.496 17.9059C480.813 17.8986 487.131 17.8986 493.448 17.9059C495.516 17.9059 496.991 19.4236 496.996 21.5318C497.003 25.5027 497.004 29.4731 496.998 33.4429ZM493.483 45.5092V21.408H474.459V45.5092H493.483Z" fill="#EAEAEA"/>
</g>
<circle cx="180" cy="30" r="30" fill="#2F7BD2"/>
<path d="M173.464 41.7059C173.311 41.0354 173.024 40.4025 172.621 39.8452C172.217 39.2878 171.706 38.8174 171.116 38.4621C170.527 38.1068 169.872 37.8738 169.19 37.7771C168.509 37.6804 167.815 37.7219 167.15 37.8992C166.877 37.9679 166.752 37.9357 166.613 37.6846C164.748 34.3694 164.142 30.8386 164.838 27.1038C165.399 24.1053 166.772 21.5081 168.872 19.2962C169.425 18.7135 169.425 17.9451 168.89 17.431C168.355 16.9169 167.563 16.9481 167 17.5469C166.716 17.8485 166.432 18.1533 166.171 18.4763C162.686 22.7784 161.385 27.663 162.267 33.1299C162.628 35.3579 163.449 37.4313 164.631 39.3878C164.535 39.508 164.46 39.6024 164.386 39.6958C163.74 40.5257 163.364 41.5331 163.309 42.5826C163.253 43.6321 163.519 44.6736 164.073 45.5673C165.241 47.4197 167.427 48.348 169.52 47.8801C172.348 47.2533 174.115 44.4834 173.464 41.7059ZM168.429 45.4289C167.919 45.4316 167.42 45.2833 166.994 45.0026C166.569 44.7219 166.236 44.3215 166.039 43.852C165.841 43.3825 165.787 42.8649 165.884 42.3648C165.98 41.8646 166.223 41.4044 166.582 41.0422C166.94 40.68 167.398 40.4321 167.898 40.3299C168.397 40.2277 168.916 40.2757 169.388 40.4679C169.86 40.6602 170.265 40.9879 170.55 41.4098C170.836 41.8317 170.99 42.3288 170.993 42.8381C170.995 43.1765 170.93 43.5119 170.803 43.8252C170.675 44.1385 170.486 44.4236 170.248 44.6642C170.01 44.9048 169.727 45.0962 169.415 45.2274C169.103 45.3586 168.768 45.427 168.429 45.4289ZM197.901 28.0869C197.561 24.3307 196.04 21.0327 193.576 18.1651C188.312 12.0413 179.237 10.2233 172.011 13.8722C171.734 14.0272 171.506 14.2571 171.353 14.5355C171.091 15.0013 171.246 15.599 171.632 15.9693C172.045 16.3632 172.583 16.4361 173.158 16.1571C176.021 14.7619 179.037 14.2135 182.181 14.7308C188.234 15.7267 192.4 19.131 194.546 24.864C195.997 28.7458 195.647 32.6555 194.265 36.4976C193.465 38.7213 192.276 40.71 190.447 42.2554C188.888 43.5722 187.096 44.3084 185.031 44.2204C184.212 44.185 183.419 43.9167 182.861 43.2996C181.846 42.1792 181.357 40.8237 181.285 39.3116C181.271 39.0036 181.343 38.8823 181.677 38.8233C185.726 38.0988 188.868 34.5401 188.988 30.4394C189.068 27.722 189.013 25.0014 189.006 22.283C189.009 22.1144 188.979 21.9469 188.916 21.7905C188.853 21.6341 188.759 21.4919 188.64 21.3724C188.521 21.2529 188.379 21.1585 188.223 21.0948C188.066 21.0311 187.899 20.9994 187.73 21.0016C186.441 20.9887 185.152 20.9951 183.871 21.0016C183.641 20.9953 183.414 21.0532 183.215 21.1689C183.016 21.2845 182.854 21.4533 182.746 21.6562C182.254 22.5148 182.865 23.5504 183.879 23.5687C184.719 23.5837 185.559 23.5687 186.399 23.5687C186.415 23.618 186.427 23.6686 186.434 23.72C186.434 25.9297 186.485 28.1416 186.418 30.3503C186.323 33.6364 183.485 36.3635 180.2 36.4268C176.504 36.4965 173.584 33.6364 173.574 29.9328C173.569 27.9506 173.574 25.9684 173.574 23.9862C173.574 23.8563 173.586 23.7275 173.594 23.5708C174.424 23.5708 175.225 23.5708 176.028 23.5708C176.849 23.5708 177.424 23.0342 177.432 22.2926C177.439 21.551 176.855 21.0048 176.041 21.0048C174.823 21.0005 173.604 21.0005 172.382 21.0048C171.529 21.0048 171.003 21.5317 171.002 22.3849C171.002 24.9606 170.987 27.5288 171.002 30.1002C171.02 31.9751 171.626 33.7971 172.735 35.3099C173.844 36.8226 175.399 37.95 177.183 38.5335C177.676 38.6934 178.187 38.8018 178.616 38.9145C178.842 40.0328 178.995 41.1371 179.297 42.1985C179.783 43.9156 180.749 45.285 182.398 46.1018C184.023 46.9077 185.728 46.853 187.428 46.5074C190.21 45.9461 192.396 44.4007 194.073 42.1685C197.206 37.9883 198.367 33.2297 197.901 28.0869Z" fill="#EAEAEA"/>
<defs>
<clipPath id="clip0_633_2">
<rect width="38" height="32" fill="white" transform="translate(124 101)"/>
</clipPath>
<clipPath id="clip1_633_2">
<rect width="27" height="36" fill="white" transform="translate(280 99)"/>
</clipPath>
<clipPath id="clip2_633_2">
<path d="M349 115C349 106.716 355.716 100 364 100H372C380.284 100 387 106.716 387 115V134H364C355.716 134 349 127.284 349 119V115Z" fill="white"/>
</clipPath>
<clipPath id="clip3_633_2">
<rect width="38" height="38" fill="white" transform="translate(424 98)"/>
</clipPath>
<clipPath id="clip4_633_2">
<rect width="38" height="33" fill="white" transform="translate(11 14)"/>
</clipPath>
<clipPath id="clip5_633_2">
<rect width="29" height="38" fill="white" transform="translate(390 11)"/>
</clipPath>
<clipPath id="clip6_633_2">
<rect width="38" height="38" fill="white" transform="translate(311 11)"/>
</clipPath>
<clipPath id="clip7_633_2">
<rect width="38" height="38" fill="white" transform="translate(86 11)"/>
</clipPath>
<clipPath id="clip8_633_2">
<rect width="38" height="35" fill="white" transform="translate(236 12)"/>
</clipPath>
<clipPath id="clip9_633_2">
<rect width="33" height="38" fill="white" transform="translate(464 11)"/>
</clipPath>
</defs>
</svg>
